<svg width="858" height="300" viewBox="0 0 858 300" fill="none" xmlns="http://www.w3.org/2000/svg">
<path d="M451.9 149.68C451.9 177.04 430.66 199.18 404.38 199.36H371.98V235H352V100H404.38C430.66 100 451.9 122.32 451.9 149.68ZM371.98 182.8H404.02C419.5 182.8 431.92 167.86 431.92 149.68C431.92 131.5 419.5 116.56 404.02 116.56H371.98V182.8ZM484.798 94.6V235H466.258V94.6H484.798ZM540.747 143.56C561.987 143.56 573.147 154.72 573.147 179.38V235H554.607V225.28C548.127 234.1 536.607 235.9 527.607 235.9C510.867 235.9 497.547 226.54 497.547 208.9C497.547 188.56 514.107 178.84 538.407 178.84H554.607C554.607 168.04 550.827 158.68 539.127 158.68C530.667 158.68 524.907 161.56 517.347 167.86L505.647 159.04C515.007 149.32 527.967 143.56 540.747 143.56ZM554.607 203.68V195.4H540.927C522.387 195.4 516.087 199.72 516.087 208C516.087 217 523.647 220.78 531.927 220.78C549.387 220.78 554.607 213.4 554.607 203.68ZM671.205 179.2L671.385 235H652.845V184.78C652.845 166.78 645.645 158.68 630.345 158.68C615.045 158.68 607.845 166.78 607.845 184.78V235H589.305V144.46H607.845V157.78C613.965 149.86 623.325 143.56 639.345 143.56C658.065 143.56 671.205 153.64 671.205 179.2ZM771.489 188.92V197.2H702.189C702.189 211.78 715.329 220.78 728.649 220.78C738.909 220.78 747.549 216.64 755.109 209.44L766.089 219.7C758.349 227.8 746.649 235.9 728.649 235.9C701.289 235.9 684.009 217.18 684.009 190.72C684.009 164.26 702.909 143.56 728.649 143.56C754.389 143.56 771.489 163.18 771.489 188.92ZM702.549 182.08H752.949C752.949 167.68 742.329 158.68 728.649 158.68C714.969 158.68 702.549 168.94 702.549 182.08ZM827.588 218.8V233.2C823.448 234.82 820.028 235.9 813.368 235.9C797.168 235.9 793.028 224.74 793.028 200.62V159.58H782.228V144.46H793.028V123.4H811.568V144.46H827.588V159.58H811.568V197.02C811.568 215.02 811.208 222.04 827.588 218.8Z" fill="#565787"/>
<path d="M260.174 170C260.174 230.487 212.363 279.5 153.412 279.5C94.4601 279.5 46.6492 230.487 46.6492 170C46.6492 109.513 94.4601 60.5 153.412 60.5C212.363 60.5 260.174 109.513 260.174 170Z" fill="#565787" stroke="#565787"/>
<ellipse cx="205.418" cy="30" rx="29.2534" ry="30" fill="#565787"/>
<ellipse cx="263.924" cy="76.6667" rx="16.2519" ry="16.6667" fill="#565787"/>
<path d="M65.6514 283.333C65.6514 292.538 58.3752 300 49.3996 300C40.4239 300 33.1477 292.538 33.1477 283.333C33.1477 274.129 40.4239 266.667 49.3996 266.667C58.3752 266.667 65.6514 274.129 65.6514 283.333Z" fill="#565787"/>
<ellipse cx="149.868" cy="29.8585" rx="149.868" ry="29.8585" transform="matrix(0.931564 -0.363579 0.347919 0.937525 0 198.594)" fill="#565787"/>
</svg>
